<?xml version="1.0" encoding="utf-8"?>
<!-- Generator: Adobe Illustrator 18.0.0, SVG Export Plug-In . SVG Version: 6.00 Build 0)  -->
<!DOCTYPE svg PUBLIC "-//W3C//DTD SVG 1.1//EN" "http://www.w3.org/Graphics/SVG/1.1/DTD/svg11.dtd">
<svg version="1.1" xmlns="http://www.w3.org/2000/svg" xmlns:xlink="http://www.w3.org/1999/xlink" x="0px" y="0px"
	 viewBox="0 0 30 30" enable-background="new 0 0 30 30" xml:space="preserve">
<g id="Background_xA0_Image_1_">
</g>
<g id="Row_1_1_">
	<g>
		<g>
			<path d="M7,4c0,1.6-1.1,3-3,3C2.2,7,1,5.7,1,4.1C1,2.4,2.1,1,4,1S7,2.4,7,4z M1,28V8.5h6V28H1z"/>
			<path d="M10,15.2c0-2.3-0.1-4.3-0.2-5.9h5.4l0.3,2.6h0.1c0.8-1.2,2.6-3,5.7-3c3.8,0,6.6,2.5,6.6,8V28h-6V17.7
				c0-2.4-0.9-4.2-3-4.2c-1.6,0-2.4,1.3-2.8,2.4C16,16.2,16,16.8,16,17.3V28h-6V15.2z"/>
		</g>
	</g>
</g>
</svg>
